<svg width="173" height="221" viewBox="0 0 173 221" fill="none" xmlns="http://www.w3.org/2000/svg">
<path d="M1.5 6.99999C1.5 3.96243 3.96243 1.5 7 1.5H15.8523V219.362H7C3.96243 219.362 1.5 216.9 1.5 213.862V6.99999Z" fill="#BB7C00" stroke="black" stroke-width="3"/>
<path d="M18.3525 1.00015H169.366C170.471 1.00015 171.366 1.89559 171.366 3.00015V217.862C171.366 218.967 170.471 219.862 169.366 219.862H18.3525V1.00015Z" fill="#FFA901" stroke="black" stroke-width="2"/>
<path d="M83.3888 114.023H87.5138C89.5347 114.023 91.2013 113.69 92.5138 113.023C93.8472 112.335 94.8367 111.408 95.4826 110.242C96.1492 109.054 96.4826 107.721 96.4826 106.242C96.4826 104.492 96.1909 103.023 95.6076 101.835C95.0242 100.648 94.1492 99.7521 92.9826 99.1479C91.8159 98.5437 90.3367 98.2416 88.5451 98.2416C86.9201 98.2416 85.4826 98.5646 84.2326 99.2104C83.0034 99.8354 82.0347 100.731 81.3263 101.898C80.6388 103.065 80.2951 104.44 80.2951 106.023H74.5138C74.5138 103.71 75.0972 101.606 76.2638 99.7104C77.4305 97.8146 79.0659 96.3041 81.1701 95.1791C83.2951 94.0541 85.7534 93.4916 88.5451 93.4916C91.2951 93.4916 93.7013 93.9812 95.7638 94.9604C97.8263 95.9187 99.4305 97.3562 100.576 99.2729C101.722 101.169 102.295 103.533 102.295 106.367C102.295 107.512 102.024 108.742 101.483 110.054C100.962 111.346 100.139 112.554 99.0138 113.679C97.9097 114.804 96.4722 115.731 94.7013 116.46C92.9305 117.169 90.8055 117.523 88.3263 117.523H83.3888V114.023ZM83.3888 118.773V115.304H88.3263C91.2222 115.304 93.618 115.648 95.5138 116.335C97.4097 117.023 98.8992 117.94 99.9826 119.085C101.087 120.231 101.858 121.492 102.295 122.867C102.753 124.221 102.983 125.575 102.983 126.929C102.983 129.054 102.618 130.94 101.889 132.585C101.18 134.231 100.17 135.627 98.8576 136.773C97.5659 137.919 96.0451 138.783 94.2951 139.367C92.5451 139.95 90.6388 140.242 88.5763 140.242C86.5972 140.242 84.7326 139.96 82.9826 139.398C81.2534 138.835 79.7222 138.023 78.3888 136.96C77.0555 135.877 76.0138 134.554 75.2638 132.992C74.5138 131.408 74.1388 129.606 74.1388 127.585H79.9201C79.9201 129.169 80.2638 130.554 80.9513 131.742C81.6597 132.929 82.6597 133.856 83.9513 134.523C85.2638 135.169 86.8055 135.492 88.5763 135.492C90.3472 135.492 91.868 135.19 93.1388 134.585C94.4305 133.96 95.4201 133.023 96.1076 131.773C96.8159 130.523 97.1701 128.95 97.1701 127.054C97.1701 125.158 96.7742 123.606 95.9826 122.398C95.1909 121.169 94.0659 120.262 92.6076 119.679C91.1701 119.075 89.4722 118.773 87.5138 118.773H83.3888Z" fill="white"/>
</svg>
