<svg width="173" height="221" viewBox="0 0 173 221" fill="none" xmlns="http://www.w3.org/2000/svg">
<path d="M1.5 6.99999C1.5 3.96243 3.96243 1.5 7 1.5H15.8523V219.362H7C3.96243 219.362 1.5 216.9 1.5 213.862V6.99999Z" fill="#DAC00C" stroke="black" stroke-width="3"/>
<path d="M18.3525 1.00015H169.366C170.471 1.00015 171.366 1.89559 171.366 3.00015V217.862C171.366 218.967 170.471 219.862 169.366 219.862H18.3525V1.00015Z" fill="#FFE320" stroke="black" stroke-width="2"/>
<path d="M104.764 134.867V139.617H74.9826V135.46L89.8888 118.867C91.7222 116.825 93.1388 115.096 94.1388 113.679C95.1597 112.242 95.868 110.96 96.2638 109.835C96.6805 108.69 96.8888 107.523 96.8888 106.335C96.8888 104.835 96.5763 103.481 95.9513 102.273C95.3472 101.044 94.4513 100.065 93.2638 99.3354C92.0763 98.6062 90.6388 98.2416 88.9513 98.2416C86.9305 98.2416 85.243 98.6375 83.8888 99.4291C82.5555 100.2 81.5555 101.283 80.8888 102.679C80.2222 104.075 79.8888 105.679 79.8888 107.492H74.1076C74.1076 104.929 74.6701 102.585 75.7951 100.46C76.9201 98.3354 78.5867 96.6479 80.7951 95.3979C83.0034 94.1271 85.7222 93.4916 88.9513 93.4916C91.8263 93.4916 94.2847 94.0021 96.3263 95.0229C98.368 96.0229 99.9305 97.4396 101.014 99.2729C102.118 101.085 102.67 103.21 102.67 105.648C102.67 106.981 102.441 108.335 101.983 109.71C101.545 111.065 100.93 112.419 100.139 113.773C99.368 115.127 98.4617 116.46 97.4201 117.773C96.3992 119.085 95.3055 120.377 94.1388 121.648L81.9513 134.867H104.764Z" fill="white"/>
</svg>
