<svg width="36" height="36" viewBox="0 0 36 36" fill="none" xmlns="http://www.w3.org/2000/svg">
<path d="M18 0C8.07508 0 0 8.07438 0 18C0 27.9256 8.07508 36 18 36C27.9249 36 36 27.9256 36 18C36 8.07438 27.9249 0 18 0ZM26.6538 19.3846H19.3846V27C19.3846 27.7643 18.7643 28.3846 18 28.3846C17.2357 28.3846 16.6154 27.7643 16.6154 27V19.3846H9.34615C8.58185 19.3846 7.96154 18.7643 7.96154 18C7.96154 17.2357 8.58185 16.6154 9.34615 16.6154H16.6154V9.69231C16.6154 8.928 17.2357 8.30769 18 8.30769C18.7643 8.30769 19.3846 8.928 19.3846 9.69231V16.6154H26.6538C27.4182 16.6154 28.0385 17.2357 28.0385 18C28.0385 18.7643 27.4182 19.3846 26.6538 19.3846Z" fill="#c70000"/>
</svg>
