<svg width="207" height="231" viewBox="0 0 207 231" fill="none" xmlns="http://www.w3.org/2000/svg">
<path d="M103.5 231C46.6334 231 0.368408 184.735 0.368408 127.868C0.368408 71.0018 46.6334 24.7368 103.5 24.7368C117.329 24.7368 128.539 35.9471 128.539 49.7755C128.539 63.604 117.329 74.8142 103.5 74.8142C74.2465 74.8142 50.4462 98.614 50.4462 127.868C50.4462 157.122 74.2465 180.922 103.5 180.922C132.754 180.922 156.554 157.122 156.554 127.868C156.554 114.04 167.764 102.829 181.593 102.829C195.421 102.829 206.632 114.04 206.632 127.868C206.632 184.735 160.367 231 103.5 231Z" fill="#FF9800"/>
<path d="M100.627 180.844C72.7039 179.347 50.4458 156.159 50.4458 127.868C50.4458 99.5777 72.7043 76.3897 100.627 74.8923V24.7788C45.0836 26.3056 0.368408 71.9619 0.368408 127.868C0.368408 183.775 45.0836 229.432 100.627 230.958V180.844H100.627Z" fill="#FFE320"/>
<path d="M170.373 32.6612L118.435 2.65154C115.434 0.916781 112.015 0 108.547 0C105.084 0 101.667 0.914976 98.6675 2.64612C92.5694 6.16571 88.7819 12.7249 88.7819 19.7654V79.7857C88.7819 86.8262 92.5699 93.3858 98.6675 96.9045C101.668 98.6356 105.084 99.5506 108.547 99.5506C112.015 99.5506 115.434 98.6338 118.436 96.8991L170.374 66.8894C176.466 63.3689 180.25 56.8111 180.25 49.7755C180.25 42.7391 176.465 36.1813 170.373 32.6612Z" fill="#005A95"/>
<path d="M170.373 32.6612L118.435 2.65154C115.434 0.916781 112.015 0 108.547 0C105.084 0 101.667 0.914976 98.6675 2.64612C92.5694 6.16571 88.7819 12.7249 88.7819 19.7654V49.7755H180.251C180.25 42.7391 176.465 36.1813 170.373 32.6612Z" fill="#84DBFF"/>
</svg>
