<svg width="438" height="275" viewBox="0 0 438 275" fill="none" xmlns="http://www.w3.org/2000/svg">
<path d="M65.0156 17.123L50.8945 56H45.123L61.3828 13.3438H65.1035L65.0156 17.123ZM76.8516 56L62.7012 17.123L62.6133 13.3438H66.334L82.6523 56H76.8516ZM76.1191 40.209V44.8379H52.1543V40.209H76.1191ZM94.9863 52.7188L103.805 24.3008H109.605L96.8906 60.8926C96.5977 61.6738 96.207 62.5137 95.7188 63.4121C95.25 64.3301 94.6445 65.1992 93.9023 66.0195C93.1602 66.8398 92.2617 67.5039 91.207 68.0117C90.1719 68.5391 88.9316 68.8027 87.4863 68.8027C87.0566 68.8027 86.5098 68.7441 85.8457 68.627C85.1816 68.5098 84.7129 68.4121 84.4395 68.334L84.4102 63.9395C84.5664 63.959 84.8105 63.9785 85.1426 63.998C85.4941 64.0371 85.7383 64.0566 85.875 64.0566C87.1055 64.0566 88.1504 63.8906 89.0098 63.5586C89.8691 63.2461 90.5918 62.709 91.1777 61.9473C91.7832 61.2051 92.3008 60.1797 92.7305 58.8711L94.9863 52.7188ZM88.5117 24.3008L96.7441 48.9102L98.1504 54.623L94.2539 56.6152L82.5938 24.3008H88.5117ZM118.57 24.3008H123.99L123.521 36.166C123.404 39.1738 123.062 41.7715 122.496 43.959C121.93 46.1465 121.207 48.0117 120.328 49.5547C119.449 51.0781 118.463 52.3574 117.369 53.3926C116.295 54.4277 115.182 55.2969 114.029 56H111.334L111.48 51.5762L112.594 51.5469C113.238 50.7852 113.863 50.0039 114.469 49.2031C115.074 48.3828 115.631 47.416 116.139 46.3027C116.646 45.1699 117.066 43.793 117.398 42.1719C117.75 40.5312 117.975 38.5293 118.072 36.166L118.57 24.3008ZM119.918 24.3008H138.99V56H133.57V29.3105H119.918V24.3008ZM110.104 51.5469H143.062V65.3457H137.643V56H115.523V65.3457H110.074L110.104 51.5469ZM154.928 47.416L169.547 24.3008H174.996V56H169.547V32.8848L154.928 56H149.537V24.3008H154.928V47.416ZM182.262 40.502V39.8281C182.262 37.543 182.594 35.4238 183.258 33.4707C183.922 31.498 184.879 29.7891 186.129 28.3438C187.379 26.8789 188.893 25.7461 190.67 24.9453C192.447 24.125 194.439 23.7148 196.646 23.7148C198.873 23.7148 200.875 24.125 202.652 24.9453C204.449 25.7461 205.973 26.8789 207.223 28.3438C208.492 29.7891 209.459 31.498 210.123 33.4707C210.787 35.4238 211.119 37.543 211.119 39.8281V40.502C211.119 42.7871 210.787 44.9062 210.123 46.8594C209.459 48.8125 208.492 50.5215 207.223 51.9863C205.973 53.4316 204.459 54.5645 202.682 55.3848C200.924 56.1855 198.932 56.5859 196.705 56.5859C194.479 56.5859 192.477 56.1855 190.699 55.3848C188.922 54.5645 187.398 53.4316 186.129 51.9863C184.879 50.5215 183.922 48.8125 183.258 46.8594C182.594 44.9062 182.262 42.7871 182.262 40.502ZM187.682 39.8281V40.502C187.682 42.084 187.867 43.5781 188.238 44.9844C188.609 46.3711 189.166 47.6016 189.908 48.6758C190.67 49.75 191.617 50.5996 192.75 51.2246C193.883 51.8301 195.201 52.1328 196.705 52.1328C198.189 52.1328 199.488 51.8301 200.602 51.2246C201.734 50.5996 202.672 49.75 203.414 48.6758C204.156 47.6016 204.713 46.3711 205.084 44.9844C205.475 43.5781 205.67 42.084 205.67 40.502V39.8281C205.67 38.2656 205.475 36.791 205.084 35.4043C204.713 33.998 204.146 32.7578 203.385 31.6836C202.643 30.5898 201.705 29.7305 200.572 29.1055C199.459 28.4805 198.15 28.168 196.646 28.168C195.162 28.168 193.854 28.4805 192.721 29.1055C191.607 29.7305 190.67 30.5898 189.908 31.6836C189.166 32.7578 188.609 33.998 188.238 35.4043C187.867 36.791 187.682 38.2656 187.682 39.8281ZM232.799 42.0547H222.398L222.34 37.7188H230.836C232.516 37.7188 233.912 37.5527 235.025 37.2207C236.158 36.8887 237.008 36.3906 237.574 35.7266C238.141 35.0625 238.424 34.2422 238.424 33.2656C238.424 32.5039 238.258 31.8398 237.926 31.2734C237.613 30.6875 237.135 30.209 236.49 29.8379C235.846 29.4473 235.045 29.1641 234.088 28.9883C233.15 28.793 232.047 28.6953 230.777 28.6953H223.834V56H218.414V24.3008H230.777C232.789 24.3008 234.596 24.4766 236.197 24.8281C237.818 25.1797 239.195 25.7168 240.328 26.4395C241.48 27.1426 242.359 28.041 242.965 29.1348C243.57 30.2285 243.873 31.5176 243.873 33.002C243.873 33.959 243.678 34.8672 243.287 35.7266C242.896 36.5859 242.32 37.3477 241.559 38.0117C240.797 38.6758 239.859 39.2227 238.746 39.6523C237.633 40.0625 236.354 40.3262 234.908 40.4434L232.799 42.0547ZM232.799 56H220.436L223.131 51.6055H232.799C234.303 51.6055 235.553 51.4199 236.549 51.0488C237.545 50.6582 238.287 50.1113 238.775 49.4082C239.283 48.6855 239.537 47.8262 239.537 46.8301C239.537 45.834 239.283 44.9844 238.775 44.2812C238.287 43.5586 237.545 43.0117 236.549 42.6406C235.553 42.25 234.303 42.0547 232.799 42.0547H224.566L224.625 37.7188H234.908L236.871 39.3594C238.609 39.4961 240.084 39.9258 241.295 40.6484C242.506 41.3711 243.424 42.2891 244.049 43.4023C244.674 44.4961 244.986 45.6875 244.986 46.9766C244.986 48.4609 244.703 49.7695 244.137 50.9023C243.59 52.0352 242.789 52.9824 241.734 53.7441C240.68 54.4863 239.4 55.0527 237.896 55.4434C236.393 55.8145 234.693 56 232.799 56ZM256.705 35.1992H266.227C268.785 35.1992 270.943 35.6484 272.701 36.5469C274.459 37.4258 275.787 38.6465 276.686 40.209C277.604 41.752 278.062 43.5098 278.062 45.4824C278.062 46.9473 277.809 48.3242 277.301 49.6133C276.793 50.8828 276.031 51.9961 275.016 52.9531C274.02 53.9102 272.779 54.6621 271.295 55.209C269.83 55.7363 268.141 56 266.227 56H252.75V24.3008H258.17V51.5469H266.227C267.789 51.5469 269.039 51.2637 269.977 50.6973C270.914 50.1309 271.588 49.3984 271.998 48.5C272.408 47.6016 272.613 46.6641 272.613 45.6875C272.613 44.7305 272.408 43.793 271.998 42.875C271.588 41.957 270.914 41.1953 269.977 40.5898C269.039 39.9648 267.789 39.6523 266.227 39.6523H256.705V35.1992ZM289.342 24.3008V56H283.922V24.3008H289.342ZM310.67 40.8535H304.84V37.5137H310.23C311.734 37.5137 312.926 37.3281 313.805 36.957C314.684 36.5664 315.309 36.0293 315.68 35.3457C316.051 34.6621 316.236 33.8613 316.236 32.9434C316.236 32.123 316.021 31.3516 315.592 30.6289C315.182 29.8867 314.518 29.291 313.6 28.8418C312.682 28.373 311.451 28.1387 309.908 28.1387C308.658 28.1387 307.525 28.3633 306.51 28.8125C305.494 29.2422 304.684 29.8379 304.078 30.5996C303.492 31.3418 303.199 32.1816 303.199 33.1191H297.779C297.779 31.1855 298.326 29.5254 299.42 28.1387C300.533 26.7324 302.008 25.6484 303.844 24.8867C305.699 24.125 307.721 23.7441 309.908 23.7441C311.744 23.7441 313.385 23.9492 314.83 24.3594C316.295 24.75 317.535 25.3359 318.551 26.1172C319.566 26.8789 320.338 27.8359 320.865 28.9883C321.412 30.1211 321.686 31.4395 321.686 32.9434C321.686 34.0176 321.432 35.0332 320.924 35.9902C320.416 36.9473 319.684 37.7969 318.727 38.5391C317.77 39.2617 316.607 39.8281 315.24 40.2383C313.893 40.6484 312.369 40.8535 310.67 40.8535ZM304.84 38.8027H310.67C312.564 38.8027 314.234 38.9883 315.68 39.3594C317.125 39.7109 318.336 40.2383 319.312 40.9414C320.289 41.6445 321.021 42.5137 321.51 43.5488C322.018 44.5645 322.271 45.7363 322.271 47.0645C322.271 48.5488 321.969 49.8867 321.363 51.0781C320.777 52.25 319.938 53.2461 318.844 54.0664C317.75 54.8867 316.441 55.5117 314.918 55.9414C313.414 56.3711 311.744 56.5859 309.908 56.5859C307.857 56.5859 305.865 56.2344 303.932 55.5312C301.998 54.8281 300.406 53.7441 299.156 52.2793C297.906 50.7949 297.281 48.9102 297.281 46.625H302.701C302.701 47.582 303.004 48.4902 303.609 49.3496C304.215 50.209 305.055 50.9023 306.129 51.4297C307.223 51.957 308.482 52.2207 309.908 52.2207C311.432 52.2207 312.701 51.9863 313.717 51.5176C314.732 51.0488 315.494 50.4238 316.002 49.6426C316.529 48.8613 316.793 48.0117 316.793 47.0938C316.793 45.9023 316.559 44.9453 316.09 44.2227C315.621 43.5 314.898 42.9727 313.922 42.6406C312.965 42.2891 311.734 42.1133 310.23 42.1133H304.84V38.8027ZM327.867 40.502V39.8281C327.867 37.543 328.199 35.4238 328.863 33.4707C329.527 31.498 330.484 29.7891 331.734 28.3438C332.984 26.8789 334.498 25.7461 336.275 24.9453C338.053 24.125 340.045 23.7148 342.252 23.7148C344.479 23.7148 346.48 24.125 348.258 24.9453C350.055 25.7461 351.578 26.8789 352.828 28.3438C354.098 29.7891 355.064 31.498 355.729 33.4707C356.393 35.4238 356.725 37.543 356.725 39.8281V40.502C356.725 42.7871 356.393 44.9062 355.729 46.8594C355.064 48.8125 354.098 50.5215 352.828 51.9863C351.578 53.4316 350.064 54.5645 348.287 55.3848C346.529 56.1855 344.537 56.5859 342.311 56.5859C340.084 56.5859 338.082 56.1855 336.305 55.3848C334.527 54.5645 333.004 53.4316 331.734 51.9863C330.484 50.5215 329.527 48.8125 328.863 46.8594C328.199 44.9062 327.867 42.7871 327.867 40.502ZM333.287 39.8281V40.502C333.287 42.084 333.473 43.5781 333.844 44.9844C334.215 46.3711 334.771 47.6016 335.514 48.6758C336.275 49.75 337.223 50.5996 338.355 51.2246C339.488 51.8301 340.807 52.1328 342.311 52.1328C343.795 52.1328 345.094 51.8301 346.207 51.2246C347.34 50.5996 348.277 49.75 349.02 48.6758C349.762 47.6016 350.318 46.3711 350.689 44.9844C351.08 43.5781 351.275 42.084 351.275 40.502V39.8281C351.275 38.2656 351.08 36.791 350.689 35.4043C350.318 33.998 349.752 32.7578 348.99 31.6836C348.248 30.5898 347.311 29.7305 346.178 29.1055C345.064 28.4805 343.756 28.168 342.252 28.168C340.768 28.168 339.459 28.4805 338.326 29.1055C337.213 29.7305 336.275 30.5898 335.514 31.6836C334.771 32.7578 334.215 33.998 333.844 35.4043C333.473 36.791 333.287 38.2656 333.287 39.8281ZM378.404 42.0547H368.004L367.945 37.7188H376.441C378.121 37.7188 379.518 37.5527 380.631 37.2207C381.764 36.8887 382.613 36.3906 383.18 35.7266C383.746 35.0625 384.029 34.2422 384.029 33.2656C384.029 32.5039 383.863 31.8398 383.531 31.2734C383.219 30.6875 382.74 30.209 382.096 29.8379C381.451 29.4473 380.65 29.1641 379.693 28.9883C378.756 28.793 377.652 28.6953 376.383 28.6953H369.439V56H364.02V24.3008H376.383C378.395 24.3008 380.201 24.4766 381.803 24.8281C383.424 25.1797 384.801 25.7168 385.934 26.4395C387.086 27.1426 387.965 28.041 388.57 29.1348C389.176 30.2285 389.479 31.5176 389.479 33.002C389.479 33.959 389.283 34.8672 388.893 35.7266C388.502 36.5859 387.926 37.3477 387.164 38.0117C386.402 38.6758 385.465 39.2227 384.352 39.6523C383.238 40.0625 381.959 40.3262 380.514 40.4434L378.404 42.0547ZM378.404 56H366.041L368.736 51.6055H378.404C379.908 51.6055 381.158 51.4199 382.154 51.0488C383.15 50.6582 383.893 50.1113 384.381 49.4082C384.889 48.6855 385.143 47.8262 385.143 46.8301C385.143 45.834 384.889 44.9844 384.381 44.2812C383.893 43.5586 383.15 43.0117 382.154 42.6406C381.158 42.25 379.908 42.0547 378.404 42.0547H370.172L370.23 37.7188H380.514L382.477 39.3594C384.215 39.4961 385.689 39.9258 386.9 40.6484C388.111 41.3711 389.029 42.2891 389.654 43.4023C390.279 44.4961 390.592 45.6875 390.592 46.9766C390.592 48.4609 390.309 49.7695 389.742 50.9023C389.195 52.0352 388.395 52.9824 387.34 53.7441C386.285 54.4863 385.006 55.0527 383.502 55.4434C381.998 55.8145 380.299 56 378.404 56Z" fill="#FFDC40"/>
<path d="M128 227V179.392C128 141.736 152.621 108.507 188.645 97.5427L191.284 96.7395C209.986 91.0478 229.975 91.1739 248.603 97.101V97.101C283.977 108.356 308 141.21 308 178.331V227" stroke="#114C82" stroke-width="13"/>
<path d="M122 215.5C122 202.521 132.521 192 145.5 192V192C158.479 192 169 202.521 169 215.5V251.5C169 264.479 158.479 275 145.5 275V275C132.521 275 122 264.479 122 251.5V215.5Z" fill="#114C82"/>
<rect x="111" y="210" width="48" height="47" rx="23.5" fill="#114C82"/>
<rect x="315" y="275" width="47" height="83" rx="23.5" transform="rotate(-180 315 275)" fill="#114C82"/>
<rect x="326" y="257" width="48" height="47" rx="23.5" transform="rotate(-180 326 257)" fill="#114C82"/>
<path d="M311.5 216.5V250.5C311.5 261.546 302.546 270.5 291.5 270.5C280.454 270.5 271.5 261.546 271.5 250.5V216.5C271.5 205.454 280.454 196.5 291.5 196.5C302.546 196.5 311.5 205.454 311.5 216.5Z" stroke="#6DC3FF"/>
<path d="M165.5 216.5V250.5C165.5 261.546 156.546 270.5 145.5 270.5C134.454 270.5 125.5 261.546 125.5 250.5V216.5C125.5 205.454 134.454 196.5 145.5 196.5C156.546 196.5 165.5 205.454 165.5 216.5Z" stroke="#6DC3FF"/>
</svg>
