<svg width="364" height="275" viewBox="0 0 364 275" fill="none" xmlns="http://www.w3.org/2000/svg">
<path d="M109.93 42.4355H115.555C115.262 45.1309 114.49 47.543 113.24 49.6719C111.99 51.8008 110.223 53.4902 107.938 54.7402C105.652 55.9707 102.801 56.5859 99.3828 56.5859C96.8828 56.5859 94.6074 56.1172 92.5566 55.1797C90.5254 54.2422 88.7773 52.9141 87.3125 51.1953C85.8477 49.457 84.7148 47.377 83.9141 44.9551C83.1328 42.5137 82.7422 39.7988 82.7422 36.8105V32.5625C82.7422 29.5742 83.1328 26.8691 83.9141 24.4473C84.7148 22.0059 85.8574 19.916 87.3418 18.1777C88.8457 16.4395 90.6523 15.1016 92.7617 14.1641C94.8711 13.2266 97.2441 12.7578 99.8809 12.7578C103.104 12.7578 105.828 13.3633 108.055 14.5742C110.281 15.7852 112.01 17.4648 113.24 19.6133C114.49 21.7422 115.262 24.2129 115.555 27.0254H109.93C109.656 25.0332 109.148 23.3242 108.406 21.8984C107.664 20.4531 106.609 19.3398 105.242 18.5586C103.875 17.7773 102.088 17.3867 99.8809 17.3867C97.9863 17.3867 96.3164 17.748 94.8711 18.4707C93.4453 19.1934 92.2441 20.2188 91.2676 21.5469C90.3105 22.875 89.5879 24.4668 89.0996 26.3223C88.6113 28.1777 88.3672 30.2383 88.3672 32.5039V36.8105C88.3672 38.9004 88.582 40.8633 89.0117 42.6992C89.4609 44.5352 90.1348 46.1465 91.0332 47.5332C91.9316 48.9199 93.0742 50.0137 94.4609 50.8145C95.8477 51.5957 97.4883 51.9863 99.3828 51.9863C101.785 51.9863 103.699 51.6055 105.125 50.8438C106.551 50.082 107.625 48.9883 108.348 47.5625C109.09 46.1367 109.617 44.4277 109.93 42.4355ZM143.562 24.3008V28.7832H127.537V24.3008H143.562ZM128.328 24.3008V56H122.908V24.3008H128.328ZM148.367 24.3008V56H142.918V24.3008H148.367ZM162.488 30.3945V68.1875H157.039V24.3008H162.02L162.488 30.3945ZM183.846 39.8867V40.502C183.846 42.8066 183.572 44.9453 183.025 46.918C182.479 48.8711 181.678 50.5703 180.623 52.0156C179.588 53.4609 178.309 54.584 176.785 55.3848C175.262 56.1855 173.514 56.5859 171.541 56.5859C169.529 56.5859 167.752 56.2539 166.209 55.5898C164.666 54.9258 163.357 53.959 162.283 52.6895C161.209 51.4199 160.35 49.8965 159.705 48.1191C159.08 46.3418 158.65 44.3398 158.416 42.1133V38.832C158.65 36.4883 159.09 34.3887 159.734 32.5332C160.379 30.6777 161.229 29.0957 162.283 27.7871C163.357 26.459 164.656 25.4531 166.18 24.7695C167.703 24.0664 169.461 23.7148 171.453 23.7148C173.445 23.7148 175.213 24.1055 176.756 24.8867C178.299 25.6484 179.598 26.7422 180.652 28.168C181.707 29.5938 182.498 31.3027 183.025 33.2949C183.572 35.2676 183.846 37.4648 183.846 39.8867ZM178.396 40.502V39.8867C178.396 38.3047 178.23 36.8203 177.898 35.4336C177.566 34.0273 177.049 32.7969 176.346 31.7422C175.662 30.668 174.783 29.8281 173.709 29.2227C172.635 28.5977 171.355 28.2852 169.871 28.2852C168.504 28.2852 167.312 28.5195 166.297 28.9883C165.301 29.457 164.451 30.0918 163.748 30.8926C163.045 31.6738 162.469 32.5723 162.02 33.5879C161.59 34.584 161.268 35.6191 161.053 36.6934V44.2812C161.443 45.6484 161.99 46.9375 162.693 48.1484C163.396 49.3398 164.334 50.3066 165.506 51.0488C166.678 51.7715 168.152 52.1328 169.93 52.1328C171.395 52.1328 172.654 51.8301 173.709 51.2246C174.783 50.5996 175.662 49.75 176.346 48.6758C177.049 47.6016 177.566 46.3711 177.898 44.9844C178.23 43.5781 178.396 42.084 178.396 40.502ZM196.619 47.416L211.238 24.3008H216.688V56H211.238V32.8848L196.619 56H191.229V24.3008H196.619V47.416ZM246.893 38.041V42.4355H230.135V38.041H246.893ZM231.277 24.3008V56H225.857V24.3008H231.277ZM251.287 24.3008V56H245.838V24.3008H251.287ZM272.938 24.3008V56H267.488V24.3008H272.938ZM283.572 24.3008V28.6953H257.059V24.3008H283.572Z" fill="#FFDC40"/>
<path d="M100.596 180C100.596 223.919 136.888 259.646 181.5 259.646V187.578H120.092V175H178V147.5V119.545H181.5V100.354C136.888 100.354 100.596 136.081 100.596 180Z" fill="#9BFBFF"/>
<path d="M189.298 119.545V187.578H181.5V259.646C226.112 259.646 262.404 223.919 262.404 180C262.404 136.081 226.112 100.354 181.5 100.354V119.545H189.298Z" fill="#46F8FF"/>
<path d="M181.5 85V100.354C226.112 100.354 262.404 136.081 262.404 180C262.404 223.919 226.112 259.646 181.5 259.646V275C234.71 275 278 232.382 278 180C278 127.618 234.71 85 181.5 85Z" fill="#005ECE"/>
<path d="M181.5 259.646C136.888 259.646 100.596 223.919 100.596 180C100.596 136.081 136.888 100.354 181.5 100.354V85C128.29 85 85 127.618 85 180C85 232.382 128.29 275 181.5 275V259.646Z" fill="#2488FF"/>
<path d="M189.298 119.545H179V176.5H120.092V187.578H189.298V119.545Z" fill="#003F8A"/>
</svg>
