<svg width="39" height="32" viewBox="0 0 39 32" fill="none" xmlns="http://www.w3.org/2000/svg">
<path d="M25.4456 16.0106V19.2627V27.3927C25.4456 28.5851 24.2566 29.5607 22.8033 29.5607H10.9131V2.46045H22.8033C24.2566 2.46045 25.4456 3.43606 25.4456 4.62845V16.0106Z" fill="#ECF4F7"/>
<path d="M10.9129 2.46053V29.5608V30.1028C10.9129 31.2952 9.85602 31.9999 8.60089 31.6204L2.32546 29.5608C0.806123 29.1271 0.34375 28.5852 0.34375 27.3928V4.62853C0.34375 3.43614 0.872231 2.89409 2.32546 2.46053L8.60089 0.400888C9.85595 0.0215057 10.9129 0.726092 10.9129 1.91848V2.46053Z" fill="#80D6FA"/>
<path d="M9.26069 32C8.99649 32 8.73221 31.9458 8.46801 31.8916L2.19257 29.832C0.607208 29.3442 0.0126953 28.6938 0.0126953 27.393V4.62874C0.0126953 3.32793 0.607208 2.67752 2.19257 2.18971L8.46801 0.130072C9.12855 -0.0867088 9.78917 -0.0325295 10.3176 0.292674C10.9121 0.617877 11.2424 1.2141 11.2424 1.91869V30.103C11.2424 30.8075 10.9121 31.4038 10.3176 31.729C10.0534 31.8916 9.65703 32 9.26069 32ZM9.26069 0.563698C9.06252 0.563698 8.86435 0.617877 8.66618 0.67212L2.39082 2.7317C1.00363 3.16532 0.607285 3.59889 0.607285 4.62874V27.393C0.607285 28.477 1.00363 28.9106 2.39082 29.29L8.66625 31.3496C9.12863 31.5122 9.59108 31.4581 9.92131 31.2955C10.3177 31.0787 10.5158 30.6451 10.5158 30.1031V1.91869C10.5158 1.37671 10.3177 0.94308 9.92131 0.726299C9.78917 0.617877 9.52497 0.563698 9.26069 0.563698ZM22.8024 29.832H13.5544C13.3562 29.832 13.2241 29.7236 13.2241 29.561C13.2241 29.3984 13.3562 29.2899 13.5544 29.2899H22.8024C24.0575 29.2899 25.1144 28.4228 25.1144 27.3929V19.2628C25.1144 19.1002 25.2466 18.9918 25.4447 18.9918C25.6429 18.9918 25.775 19.1002 25.775 19.2628V27.3929C25.775 28.748 24.4538 29.832 22.8024 29.832ZM32.0503 21.7019C31.9843 21.7019 31.8522 21.7019 31.7861 21.6477C31.654 21.5393 31.654 21.3767 31.7861 21.2683L37.7973 16.3361H14.8756C14.6774 16.3361 14.5453 16.2277 14.5453 16.0651C14.5453 15.9025 14.6774 15.7941 14.8756 15.7941H37.8634L31.8522 10.8618C31.7201 10.7534 31.7201 10.5908 31.8522 10.4825C31.9844 10.374 32.1825 10.374 32.3146 10.4825L38.9203 15.9025C38.9203 15.9025 38.9863 15.9567 38.9863 16.0109C38.9863 16.0651 38.9863 16.0651 38.9863 16.1193C38.9863 16.1735 38.9863 16.1735 38.9863 16.2278C38.9863 16.2819 38.9203 16.2819 38.9203 16.2819L32.3146 21.702C32.2485 21.6477 32.1164 21.7019 32.0503 21.7019ZM8.26984 17.9078C8.07166 17.9078 7.93952 17.7994 7.93952 17.6368V14.3848C7.93952 14.2222 8.07166 14.1137 8.26984 14.1137C8.46801 14.1137 8.60015 14.2222 8.60015 14.3848V17.6368C8.60015 17.7994 8.46801 17.9078 8.26984 17.9078ZM25.4447 13.0298C25.2465 13.0298 25.1143 12.9214 25.1143 12.7588V4.62867C25.1143 3.59889 24.0575 2.73163 22.8023 2.73163H13.4883C13.2901 2.73163 13.158 2.62321 13.158 2.46061C13.158 2.29801 13.2901 2.18959 13.4883 2.18959H22.8023C24.4537 2.18959 25.7749 3.27362 25.7749 4.62861V12.7587C25.775 12.9214 25.6428 13.0298 25.4447 13.0298Z" fill="#51565F"/>
</svg>
