<svg width="193" height="193" viewBox="0 0 193 193" fill="none" xmlns="http://www.w3.org/2000/svg">
<path d="M15.2598 143.23V84.7722C15.2598 52.2668 35.8878 23.3433 66.6208 12.7564L69.1172 11.8964C87.7096 5.49171 107.932 5.63257 126.434 12.2956V12.2956C156.678 23.1877 176.841 51.8799 176.841 84.0258V143.23" stroke="#114C82" stroke-width="13"/>
<rect x="9.875" y="108" width="42.1907" height="84.3315" rx="21.0953" fill="#114C82"/>
<rect y="126.289" width="43.0884" height="47.754" rx="21.5442" fill="#114C82"/>
<path d="M13.0674 169.865L13.0674 130.466C13.0674 120.579 21.0826 112.564 30.9697 112.564C40.8569 112.564 48.8721 120.579 48.8721 130.466L48.8721 169.865C48.8721 179.752 40.8569 187.767 30.9697 187.767C21.0826 187.767 13.0674 179.752 13.0674 169.865Z" stroke="#6DC3FF"/>
<rect x="183.123" y="192" width="42.1907" height="84.3316" rx="21.0953" transform="rotate(-180 183.123 192)" fill="#114C82"/>
<rect x="192.998" y="173.711" width="43.0884" height="47.754" rx="21.5442" transform="rotate(-180 192.998 173.711)" fill="#114C82"/>
<path d="M179.931 130.135V169.534C179.931 179.421 171.915 187.436 162.028 187.436C152.141 187.436 144.126 179.421 144.126 169.534V130.135C144.126 120.248 152.141 112.233 162.028 112.233C171.915 112.233 179.931 120.248 179.931 130.135Z" stroke="#6DC3FF"/>
</svg>
