<svg width="193" height="190" viewBox="0 0 193 190" fill="none" xmlns="http://www.w3.org/2000/svg">
<path d="M15.5957 95C15.5957 138.919 51.8875 174.646 96.4997 174.646V102.578H35.0918V90H93V62.5V34.5454H96.4997V15.3535C51.8875 15.3535 15.5957 51.0812 15.5957 95Z" fill="#9BFBFF"/>
<path d="M104.298 34.5454V102.578H96.5V174.646C141.112 174.646 177.404 138.919 177.404 95C177.404 51.0812 141.112 15.3535 96.5 15.3535V34.5454H104.298Z" fill="#46F8FF"/>
<path d="M96.5 0V15.3535C141.112 15.3535 177.404 51.0812 177.404 95C177.404 138.919 141.112 174.646 96.5 174.646V190C149.71 190 193 147.382 193 95C193 42.6176 149.71 0 96.5 0Z" fill="#005ECE"/>
<path d="M96.5 174.646C51.8878 174.646 15.596 138.919 15.596 95C15.596 51.0812 51.8878 15.3535 96.5 15.3535V0C43.2905 0 0 42.6176 0 95C0 147.382 43.2905 190 96.5 190V174.646Z" fill="#2488FF"/>
<path d="M104.298 34.5455H94V91.5001H35.0918V102.579H104.298V34.5455Z" fill="#003F8A"/>
</svg>
