<svg width="58" height="64" viewBox="0 0 58 64" fill="none" xmlns="http://www.w3.org/2000/svg">
<path d="M17.7 1.80001C16.7 2.80001 16 4.40001 16 5.30001C16 6.70001 15 7.00001 11.1 7.00001C2.49999 7.00001 -1.50001 10.1 2.19999 13.8C3.89999 15.5 54.1 15.5 55.8 13.8C59.5 10.1 55.5 7.00001 46.9 7.00001C42.8 7.00001 42 6.70001 42 5.20001C42 1.20001 38.9 1.19824e-05 28.8 1.19824e-05C20.9 1.19824e-05 19 0.300012 17.7 1.80001ZM38 5.50001C38 6.70001 36.3 7.00001 29 7.00001C21.7 7.00001 20 6.70001 20 5.50001C20 4.30001 21.7 4.00001 29 4.00001C36.3 4.00001 38 4.30001 38 5.50001Z" fill="#114C82"/>
<path d="M5 20.7C5 21.7 5.7 30.1 6.5 39.5C7.3 48.8 8 57.3 8 58.2C8 59.2 8.9 60.9 10 62C11.8 63.8 13.3 64 29 64C44.7 64 46.2 63.8 48 62C49.1 60.9 50 59.2 50 58.2C50 57.3 50.7 48.8 51.5 39.5C52.3 30.1 53 21.7 53 20.7C53 19.1 51.2 19 29 19C6.8 19 5 19.1 5 20.7ZM20.2 32C21.3 47.6 21.2 56 19.6 56C18 56 17.4 52 16.4 34.7C15.8 23.4 15.8 22.8 17.6 23.2C19.2 23.5 19.6 24.8 20.2 32ZM30.5 39.6C30.5 53.1 30.3 55.5 29 55.5C27.7 55.5 27.5 53 27.2 40.5C26.9 24.9 27.2 22.6 29.3 23.3C30.2 23.6 30.5 27.7 30.5 39.6ZM41.6 34.7C40.6 52.5 40.1 56 38.3 56C36.9 56 36.8 54.1 37.4 40.3C37.8 31.6 38.4 24.2 38.6 23.8C38.9 23.4 39.8 23 40.7 23C42 23 42.2 24.5 41.6 34.7Z" fill="#114C82"/>
</svg>
