<svg width="56" height="56" viewBox="0 0 56 56" fill="none" xmlns="http://www.w3.org/2000/svg">
<path d="M18.9 1.60001C13 3.40001 6.2 9.40001 3 15.6C-0.5 22.6 -0.5 33.4 3 40.4C11.8 57.6 34 61.2 47.4 47.7C58.8 36.2 58.8 19.8 47.5 8.50001C39.7 0.700008 29.7 -1.79999 18.9 1.60001ZM34.8 23.7L30.6 28L34.8 32.3C38.1 35.7 38.7 36.9 37.8 37.8C36.9 38.7 35.7 38.1 32.3 34.8L28 30.6L23.5 35C19.7 38.7 19 39.1 18.4 37.6C17.9 36.4 18.9 34.7 21.6 31.9L25.4 28L21.7 24.2C15.3 17.7 17.7 15.3 24.2 21.7L28 25.4L32.2 21.3C35.5 18 36.7 17.3 37.7 18.2C38.8 19.1 38.3 20.2 34.8 23.7Z" fill="#009900"/>
</svg>
