<svg width="509" height="420" viewBox="0 0 509 420" fill="none" xmlns="http://www.w3.org/2000/svg">
<path d="M75.0228 107.468L106.858 76.8143C125.65 58.7191 149.155 46.2777 174.686 40.9128L264.187 22.1053L350.258 8.25565C383.194 2.95584 416.908 10.5235 444.419 29.3921C484.146 56.6385 505.545 103.623 500.023 151.478L491.267 227.357C486.85 265.635 466.742 300.363 435.743 323.249L365.382 375.195C327.532 403.14 278.114 410.041 234.056 393.535L204.473 382.451C192.674 378.031 180.328 375.235 167.776 374.141L114.267 369.477C57.8489 364.56 12.4826 320.991 5.28953 264.817C1.86276 238.056 7.52301 210.919 21.3625 187.76L52.1163 136.294C58.4397 125.712 66.1428 116.019 75.0228 107.468Z" fill="#FFA901" fill-opacity="0.25"/>
<path d="M111.945 122.268L129.688 104.385C148.51 85.4138 172.402 72.2708 198.502 66.5298L261.956 52.5725L328.814 41.3115C356.757 36.6049 385.423 43.253 408.443 59.7788C439.618 82.1596 456.305 119.61 452.1 157.755L445.538 217.288C441.405 254.778 422.214 288.978 392.371 312.042L356.911 339.445C318.227 369.34 266.681 376.715 221.166 358.865L218.029 357.635C205.812 352.844 192.978 349.807 179.91 348.614L145.95 345.516C97.8911 341.132 59.4042 303.81 53.5444 255.909C50.865 234.006 55.327 211.824 66.2667 192.661L89.9048 151.255C95.9486 140.668 103.359 130.922 111.945 122.268Z" fill="#FFA901" fill-opacity="0.5"/>
</svg>
